<svg width="512" height="512" viewBox="0 0 512 512" fill="none" xmlns="http://www.w3.org/2000/svg">
  <defs>
    <linearGradient id="fish-body" x1="100" y1="300" x2="400" y2="300" gradientUnits="userSpaceOnUse">
      <stop offset="0%" stop-color="#FF7F50" /> <stop offset="100%" stop-color="#FF4500" /> </linearGradient>
    <linearGradient id="fish-fin" x1="200" y1="200" x2="400" y2="400" gradientUnits="userSpaceOnUse">
      <stop offset="0%" stop-color="#FFA07A" /> 
      <stop offset="100%" stop-color="#FF6347" />
    </linearGradient>
    <linearGradient id="bubble-grad" x1="0" y1="1" x2="0" y2="0">
      <stop offset="0%" stop-color="#AEEEEE" stop-opacity="0.8"/>
      <stop offset="100%" stop-color="#E0FFFF" stop-opacity="0.1"/>
    </linearGradient>
    <filter id="soft-shadow" x="-20%" y="-20%" width="140%" height="140%">
      <feGaussianBlur in="SourceAlpha" stdDeviation="5"/>
      <feOffset dx="2" dy="4" result="offsetblur"/>
      <feComponentTransfer>
        <feFuncA type="linear" slope="0.2"/>
      </feComponentTransfer>
      <feMerge>
        <feMergeNode/>
        <feMergeNode in="SourceGraphic"/>
      </feMerge>
    </filter>
  </defs>

  <rect width="512" height="512" rx="120" fill="#E6F7FF" />

  <g filter="url(#soft-shadow)">
    <g transform="translate(256, 180)">
      <circle cx="0" cy="60" r="15" fill="url(#bubble-grad)">
        <animate attributeName="cy" values="60;55;60" dur="2s" repeatCount="indefinite" />
      </circle>
      <circle cx="-20" cy="20" r="12" fill="url(#bubble-grad)" opacity="0.9"/>
      <circle cx="0" cy="0" r="18" fill="url(#bubble-grad)" opacity="0.8"/>
      <circle cx="25" cy="-10" r="14" fill="url(#bubble-grad)" opacity="0.7"/>
      <circle cx="45" cy="-35" r="16" fill="url(#bubble-grad)" opacity="0.6"/>
      <circle cx="35" cy="-65" r="12" fill="url(#bubble-grad)" opacity="0.5"/>
      <circle cx="0" cy="-85" r="14" fill="url(#bubble-grad)" opacity="0.4">
         <animate attributeName="r" values="14;20;14" dur="3s" repeatCount="indefinite" />
         <animate attributeName="opacity" values="0.4;0;0.4" dur="3s" repeatCount="indefinite" />
      </circle>
      <circle cx="-35" cy="-75" r="10" fill="url(#bubble-grad)" opacity="0.3"/>
    </g>

    <g transform="translate(60, 280) rotate(-10)">
      <path d="M 320 0 C 380 -40, 420 -80, 440 -40 C 460 0, 400 40, 320 40 C 400 80, 460 120, 440 160 C 420 200, 380 160, 320 100" fill="url(#fish-fin)" />
      <path d="M 180 -60 C 220 -120, 280 -120, 300 -40" fill="url(#fish-fin)" />
      <ellipse cx="200" cy="50" rx="160" ry="100" fill="url(#fish-body)" />
      <path d="M 200 150 C 220 200, 260 220, 280 180" fill="url(#fish-fin)" />
      
      <circle cx="80" cy="20" r="30" fill="white" stroke="#FF4500" stroke-width="4"/>
      <circle cx="140" cy="20" r="30" fill="white" stroke="#FF4500" stroke-width="4"/>
      <circle cx="75" cy="25" r="8" fill="#0F172A" />
      <circle cx="145" cy="15" r="8" fill="#0F172A" />
      <ellipse cx="110" cy="80" rx="15" ry="10" fill="#7c2d12" />
      <path d="M 180 -10 C 180 -10, 170 10, 190 20 C 210 30, 220 10, 220 -10" fill="#AEEEEE" opacity="0.8">
         <animate attributeName="opacity" values="0.8;0.2;0.8" dur="1.5s" repeatCount="indefinite" />
      </path>
    </g>
  </g>
</svg>